<?xml version="1.0" encoding="utf-8" standalone="no"?>
<!DOCTYPE svg PUBLIC "-//W3C//DTD SVG 1.1//EN"
  "http://www.w3.org/Graphics/SVG/1.1/DTD/svg11.dtd">
<svg xmlns:xlink="http://www.w3.org/1999/xlink" width="518.4pt" height="1022.4pt" viewBox="0 0 518.4 1022.4" xmlns="http://www.w3.org/2000/svg" version="1.1">
 <metadata>
  <rdf:RDF xmlns:dc="http://purl.org/dc/elements/1.1/" xmlns:cc="http://creativecommons.org/ns#" xmlns:rdf="http://www.w3.org/1999/02/22-rdf-syntax-ns#">
   <cc:Work>
    <dc:type rdf:resource="http://purl.org/dc/dcmitype/StillImage"/>
    <dc:date>2026-02-05T18:43:13.260418</dc:date>
    <dc:format>image/svg+xml</dc:format>
    <dc:creator>
     <cc:Agent>
      <dc:title>Matplotlib v3.8.3, https://matplotlib.org/</dc:title>
     </cc:Agent>
    </dc:creator>
   </cc:Work>
  </rdf:RDF>
 </metadata>
 <defs>
  <style type="text/css">*{stroke-linejoin: round; stroke-linecap: butt}</style>
 </defs>
 <g id="figure_1">
  <g id="patch_1">
   <path d="M 0 1022.4 
L 518.4 1022.4 
L 518.4 0 
L 0 0 
z
" style="fill: #ffffff"/>
  </g>
  <g id="axes_1">
   <g id="patch_2">
    <path d="M 60.6 187.042105 
L 221.88 187.042105 
Q 242.04 187.042105 242.04 151.673684 
L 242.04 98.621053 
Q 242.04 63.252632 221.88 63.252632 
L 60.6 63.252632 
Q 40.44 63.252632 40.44 98.621053 
L 40.44 151.673684 
Q 40.44 187.042105 60.6 187.042105 
z
" clip-path="url(#p4527ceac2a)" style="fill: #4c4c4c; opacity: 0.18"/>
    <path d="M 57.6 184.042105 
L 218.88 184.042105 
Q 239.04 184.042105 239.04 148.673684 
L 239.04 95.621053 
Q 239.04 60.252632 218.88 60.252632 
L 57.6 60.252632 
Q 37.44 60.252632 37.44 95.621053 
L 37.44 148.673684 
Q 37.44 184.042105 57.6 184.042105 
z
" clip-path="url(#p4527ceac2a)" style="fill: #ffffff; stroke: #111827; stroke-width: 1.8; stroke-linejoin: miter"/>
    <g id="patch_3">
     <path d="M 282.36 310.831579 
L 443.64 310.831579 
Q 463.8 310.831579 463.8 275.463158 
L 463.8 222.410526 
Q 463.8 187.042105 443.64 187.042105 
L 282.36 187.042105 
Q 262.2 187.042105 262.2 222.410526 
L 262.2 275.463158 
Q 262.2 310.831579 282.36 310.831579 
z
" clip-path="url(#p4527ceac2a)" style="fill: #4c4c4c; opacity: 0.18"/>
     <path d="M 279.36 307.831579 
L 440.64 307.831579 
Q 460.8 307.831579 460.8 272.463158 
L 460.8 219.410526 
Q 460.8 184.042105 440.64 184.042105 
L 279.36 184.042105 
Q 259.2 184.042105 259.2 219.410526 
L 259.2 272.463158 
Q 259.2 307.831579 279.36 307.831579 
z
" clip-path="url(#p4527ceac2a)" style="fill: #ffffff; stroke: #111827; stroke-width: 1.8; stroke-linejoin: miter"/>
     <g id="patch_4">
      <path d="M 60.6 434.621053 
L 221.88 434.621053 
Q 242.04 434.621053 242.04 399.252632 
L 242.04 346.2 
Q 242.04 310.831579 221.88 310.831579 
L 60.6 310.831579 
Q 40.44 310.831579 40.44 346.2 
L 40.44 399.252632 
Q 40.44 434.621053 60.6 434.621053 
z
" clip-path="url(#p4527ceac2a)" style="fill: #4c4c4c; opacity: 0.18"/>
      <path d="M 57.6 431.621053 
L 218.88 431.621053 
Q 239.04 431.621053 239.04 396.252632 
L 239.04 343.2 
Q 239.04 307.831579 218.88 307.831579 
L 57.6 307.831579 
Q 37.44 307.831579 37.44 343.2 
L 37.44 396.252632 
Q 37.44 431.621053 57.6 431.621053 
z
" clip-path="url(#p4527ceac2a)" style="fill: #ffffff; stroke: #111827; stroke-width: 1.8; stroke-linejoin: miter"/>
      <g id="patch_5">
       <path d="M 282.36 558.410526 
L 443.64 558.410526 
Q 463.8 558.410526 463.8 523.042105 
L 463.8 469.989474 
Q 463.8 434.621053 443.64 434.621053 
L 282.36 434.621053 
Q 262.2 434.621053 262.2 469.989474 
L 262.2 523.042105 
Q 262.2 558.410526 282.36 558.410526 
z
" clip-path="url(#p4527ceac2a)" style="fill: #4c4c4c; opacity: 0.18"/>
       <path d="M 279.36 555.410526 
L 440.64 555.410526 
Q 460.8 555.410526 460.8 520.042105 
L 460.8 466.989474 
Q 460.8 431.621053 440.64 431.621053 
L 279.36 431.621053 
Q 259.2 431.621053 259.2 466.989474 
L 259.2 520.042105 
Q 259.2 555.410526 279.36 555.410526 
z
" clip-path="url(#p4527ceac2a)" style="fill: #ffffff; stroke: #111827; stroke-width: 1.8; stroke-linejoin: miter"/>
       <g id="patch_6">
        <path d="M 60.6 682.2 
L 221.88 682.2 
Q 242.04 682.2 242.04 646.831579 
L 242.04 593.778947 
Q 242.04 558.410526 221.88 558.410526 
L 60.6 558.410526 
Q 40.44 558.410526 40.44 593.778947 
L 40.44 646.831579 
Q 40.44 682.2 60.6 682.2 
z
" clip-path="url(#p4527ceac2a)" style="fill: #4c4c4c; opacity: 0.18"/>
        <path d="M 57.6 679.2 
L 218.88 679.2 
Q 239.04 679.2 239.04 643.831579 
L 239.04 590.778947 
Q 239.04 555.410526 218.88 555.410526 
L 57.6 555.410526 
Q 37.44 555.410526 37.44 590.778947 
L 37.44 643.831579 
Q 37.44 679.2 57.6 679.2 
z
" clip-path="url(#p4527ceac2a)" style="fill: #ffffff; stroke: #111827; stroke-width: 1.8; stroke-linejoin: miter"/>
        <g id="patch_7">
         <path d="M 282.36 805.989474 
L 443.64 805.989474 
Q 463.8 805.989474 463.8 770.621053 
L 463.8 717.568421 
Q 463.8 682.2 443.64 682.2 
L 282.36 682.2 
Q 262.2 682.2 262.2 717.568421 
L 262.2 770.621053 
Q 262.2 805.989474 282.36 805.989474 
z
" clip-path="url(#p4527ceac2a)" style="fill: #4c4c4c; opacity: 0.18"/>
         <path d="M 279.36 802.989474 
L 440.64 802.989474 
Q 460.8 802.989474 460.8 767.621053 
L 460.8 714.568421 
Q 460.8 679.2 440.64 679.2 
L 279.36 679.2 
Q 259.2 679.2 259.2 714.568421 
L 259.2 767.621053 
Q 259.2 802.989474 279.36 802.989474 
z
" clip-path="url(#p4527ceac2a)" style="fill: #ffffff; stroke: #111827; stroke-width: 1.8; stroke-linejoin: miter"/>
         <g id="patch_8">
          <path d="M 171.48 929.778947 
L 352.92 929.778947 
Q 373.08 929.778947 373.08 894.410526 
L 373.08 841.357895 
Q 373.08 805.989474 352.92 805.989474 
L 171.48 805.989474 
Q 151.32 805.989474 151.32 841.357895 
L 151.32 894.410526 
Q 151.32 929.778947 171.48 929.778947 
z
" clip-path="url(#p4527ceac2a)" style="fill: #4c4c4c; opacity: 0.18"/>
          <path d="M 168.48 926.778947 
L 349.92 926.778947 
Q 370.08 926.778947 370.08 891.410526 
L 370.08 838.357895 
Q 370.08 802.989474 349.92 802.989474 
L 168.48 802.989474 
Q 148.32 802.989474 148.32 838.357895 
L 148.32 891.410526 
Q 148.32 926.778947 168.48 926.778947 
z
" clip-path="url(#p4527ceac2a)" style="fill: #ffffff; stroke: #111827; stroke-width: 1.8; stroke-linejoin: miter"/>
          <g id="text_1">
           <!-- Nutrition Label Generation Pipeline -->
           <g style="fill: #111827" transform="translate(19.2225 49.190921) scale(0.24 -0.24)">
            <defs>
             <path id="DejaVuSans-Bold-4e" d="M 588 4666 
L 1931 4666 
L 3628 1466 
L 3628 4666 
L 4769 4666 
L 4769 0 
L 3425 0 
L 1728 3200 
L 1728 0 
L 588 0 
L 588 4666 
z
" transform="scale(0.015625)"/>
             <path id="DejaVuSans-Bold-75" d="M 500 1363 
L 500 3500 
L 1625 3500 
L 1625 3150 
Q 1625 2866 1622 2436 
Q 1619 2006 1619 1863 
Q 1619 1441 1641 1255 
Q 1663 1069 1716 984 
Q 1784 875 1895 815 
Q 2006 756 2150 756 
Q 2500 756 2700 1025 
Q 2900 1294 2900 1772 
L 2900 3500 
L 4019 3500 
L 4019 0 
L 2900 0 
L 2900 506 
Q 2647 200 2364 54 
Q 2081 -91 1741 -91 
Q 1134 -91 817 281 
Q 500 653 500 1363 
z
" transform="scale(0.015625)"/>
             <path id="DejaVuSans-Bold-74" d="M 1759 4494 
L 1759 3500 
L 2913 3500 
L 2913 2700 
L 1759 2700 
L 1759 1216 
Q 1759 972 1856 886 
Q 1953 800 2241 800 
L 2816 800 
L 2816 0 
L 1856 0 
Q 1194 0 917 276 
Q 641 553 641 1216 
L 641 2700 
L 84 2700 
L 84 3500 
L 641 3500 
L 641 4494 
L 1759 4494 
z
" transform="scale(0.015625)"/>
             <path id="DejaVuSans-Bold-72" d="M 3138 2547 
Q 2991 2616 2845 2648 
Q 2700 2681 2553 2681 
Q 2122 2681 1889 2404 
Q 1656 2128 1656 1613 
L 1656 0 
L 538 0 
L 538 3500 
L 1656 3500 
L 1656 2925 
Q 1872 3269 2151 3426 
Q 2431 3584 2822 3584 
Q 2878 3584 2943 3579 
Q 3009 3575 3134 3559 
L 3138 2547 
z
" transform="scale(0.015625)"/>
             <path id="DejaVuSans-Bold-69" d="M 538 3500 
L 1656 3500 
L 1656 0 
L 538 0 
L 538 3500 
z
M 538 4863 
L 1656 4863 
L 1656 3950 
L 538 3950 
L 538 4863 
z
" transform="scale(0.015625)"/>
             <path id="DejaVuSans-Bold-6f" d="M 2203 2784 
Q 1831 2784 1636 2517 
Q 1441 2250 1441 1747 
Q 1441 1244 1636 976 
Q 1831 709 2203 709 
Q 2569 709 2762 976 
Q 2956 1244 2956 1747 
Q 2956 2250 2762 2517 
Q 2569 2784 2203 2784 
z
M 2203 3584 
Q 3106 3584 3614 3096 
Q 4122 2609 4122 1747 
Q 4122 884 3614 396 
Q 3106 -91 2203 -91 
Q 1297 -91 786 396 
Q 275 884 275 1747 
Q 275 2609 786 3096 
Q 1297 3584 2203 3584 
z
" transform="scale(0.015625)"/>
             <path id="DejaVuSans-Bold-6e" d="M 4056 2131 
L 4056 0 
L 2931 0 
L 2931 347 
L 2931 1631 
Q 2931 2084 2911 2256 
Q 2891 2428 2841 2509 
Q 2775 2619 2662 2680 
Q 2550 2741 2406 2741 
Q 2056 2741 1856 2470 
Q 1656 2200 1656 1722 
L 1656 0 
L 538 0 
L 538 3500 
L 1656 3500 
L 1656 2988 
Q 1909 3294 2193 3439 
Q 2478 3584 2822 3584 
Q 3428 3584 3742 3212 
Q 4056 2841 4056 2131 
z
" transform="scale(0.015625)"/>
             <path id="DejaVuSans-Bold-20" transform="scale(0.015625)"/>
             <path id="DejaVuSans-Bold-4c" d="M 588 4666 
L 1791 4666 
L 1791 909 
L 3903 909 
L 3903 0 
L 588 0 
L 588 4666 
z
" transform="scale(0.015625)"/>
             <path id="DejaVuSans-Bold-61" d="M 2106 1575 
Q 1756 1575 1579 1456 
Q 1403 1338 1403 1106 
Q 1403 894 1545 773 
Q 1688 653 1941 653 
Q 2256 653 2472 879 
Q 2688 1106 2688 1447 
L 2688 1575 
L 2106 1575 
z
M 3816 1997 
L 3816 0 
L 2688 0 
L 2688 519 
Q 2463 200 2181 54 
Q 1900 -91 1497 -91 
Q 953 -91 614 226 
Q 275 544 275 1050 
Q 275 1666 698 1953 
Q 1122 2241 2028 2241 
L 2688 2241 
L 2688 2328 
Q 2688 2594 2478 2717 
Q 2269 2841 1825 2841 
Q 1466 2841 1156 2769 
Q 847 2697 581 2553 
L 581 3406 
Q 941 3494 1303 3539 
Q 1666 3584 2028 3584 
Q 2975 3584 3395 3211 
Q 3816 2838 3816 1997 
z
" transform="scale(0.015625)"/>
             <path id="DejaVuSans-Bold-62" d="M 2400 722 
Q 2759 722 2948 984 
Q 3138 1247 3138 1747 
Q 3138 2247 2948 2509 
Q 2759 2772 2400 2772 
Q 2041 2772 1848 2508 
Q 1656 2244 1656 1747 
Q 1656 1250 1848 986 
Q 2041 722 2400 722 
z
M 1656 2988 
Q 1888 3294 2169 3439 
Q 2450 3584 2816 3584 
Q 3463 3584 3878 3070 
Q 4294 2556 4294 1747 
Q 4294 938 3878 423 
Q 3463 -91 2816 -91 
Q 2450 -91 2169 54 
Q 1888 200 1656 506 
L 1656 0 
L 538 0 
L 538 4863 
L 1656 4863 
L 1656 2988 
z
" transform="scale(0.015625)"/>
             <path id="DejaVuSans-Bold-65" d="M 4031 1759 
L 4031 1441 
L 1416 1441 
Q 1456 1047 1700 850 
Q 1944 653 2381 653 
Q 2734 653 3104 758 
Q 3475 863 3866 1075 
L 3866 213 
Q 3469 63 3072 -14 
Q 2675 -91 2278 -91 
Q 1328 -91 801 392 
Q 275 875 275 1747 
Q 275 2603 792 3093 
Q 1309 3584 2216 3584 
Q 3041 3584 3536 3087 
Q 4031 2591 4031 1759 
z
M 2881 2131 
Q 2881 2450 2695 2645 
Q 2509 2841 2209 2841 
Q 1884 2841 1681 2658 
Q 1478 2475 1428 2131 
L 2881 2131 
z
" transform="scale(0.015625)"/>
             <path id="DejaVuSans-Bold-6c" d="M 538 4863 
L 1656 4863 
L 1656 0 
L 538 0 
L 538 4863 
z
" transform="scale(0.015625)"/>
             <path id="DejaVuSans-Bold-47" d="M 4781 347 
Q 4331 128 3847 18 
Q 3363 -91 2847 -91 
Q 1681 -91 1000 561 
Q 319 1213 319 2328 
Q 319 3456 1012 4103 
Q 1706 4750 2913 4750 
Q 3378 4750 3804 4662 
Q 4231 4575 4609 4403 
L 4609 3438 
Q 4219 3659 3833 3768 
Q 3447 3878 3059 3878 
Q 2341 3878 1952 3476 
Q 1563 3075 1563 2328 
Q 1563 1588 1938 1184 
Q 2313 781 3003 781 
Q 3191 781 3352 804 
Q 3513 828 3641 878 
L 3641 1784 
L 2906 1784 
L 2906 2591 
L 4781 2591 
L 4781 347 
z
" transform="scale(0.015625)"/>
             <path id="DejaVuSans-Bold-50" d="M 588 4666 
L 2584 4666 
Q 3475 4666 3951 4270 
Q 4428 3875 4428 3144 
Q 4428 2409 3951 2014 
Q 3475 1619 2584 1619 
L 1791 1619 
L 1791 0 
L 588 0 
L 588 4666 
z
M 1791 3794 
L 1791 2491 
L 2456 2491 
Q 2806 2491 2997 2661 
Q 3188 2831 3188 3144 
Q 3188 3456 2997 3625 
Q 2806 3794 2456 3794 
L 1791 3794 
z
" transform="scale(0.015625)"/>
             <path id="DejaVuSans-Bold-70" d="M 1656 506 
L 1656 -1331 
L 538 -1331 
L 538 3500 
L 1656 3500 
L 1656 2988 
Q 1888 3294 2169 3439 
Q 2450 3584 2816 3584 
Q 3463 3584 3878 3070 
Q 4294 2556 4294 1747 
Q 4294 938 3878 423 
Q 3463 -91 2816 -91 
Q 2450 -91 2169 54 
Q 1888 200 1656 506 
z
M 2400 2772 
Q 2041 2772 1848 2508 
Q 1656 2244 1656 1747 
Q 1656 1250 1848 986 
Q 2041 722 2400 722 
Q 2759 722 2948 984 
Q 3138 1247 3138 1747 
Q 3138 2247 2948 2509 
Q 2759 2772 2400 2772 
z
" transform="scale(0.015625)"/>
            </defs>
            <use xlink:href="#DejaVuSans-Bold-4e"/>
            <use xlink:href="#DejaVuSans-Bold-75" x="83.691406"/>
            <use xlink:href="#DejaVuSans-Bold-74" x="154.882812"/>
            <use xlink:href="#DejaVuSans-Bold-72" x="202.685547"/>
            <use xlink:href="#DejaVuSans-Bold-69" x="252.001953"/>
            <use xlink:href="#DejaVuSans-Bold-74" x="286.279297"/>
            <use xlink:href="#DejaVuSans-Bold-69" x="334.082031"/>
            <use xlink:href="#DejaVuSans-Bold-6f" x="368.359375"/>
            <use xlink:href="#DejaVuSans-Bold-6e" x="437.060547"/>
            <use xlink:href="#DejaVuSans-Bold-20" x="508.251953"/>
            <use xlink:href="#DejaVuSans-Bold-4c" x="543.066406"/>
            <use xlink:href="#DejaVuSans-Bold-61" x="606.787109"/>
            <use xlink:href="#DejaVuSans-Bold-62" x="674.267578"/>
            <use xlink:href="#DejaVuSans-Bold-65" x="745.849609"/>
            <use xlink:href="#DejaVuSans-Bold-6c" x="813.671875"/>
            <use xlink:href="#DejaVuSans-Bold-20" x="847.949219"/>
            <use xlink:href="#DejaVuSans-Bold-47" x="882.763672"/>
            <use xlink:href="#DejaVuSans-Bold-65" x="964.84375"/>
            <use xlink:href="#DejaVuSans-Bold-6e" x="1032.666016"/>
            <use xlink:href="#DejaVuSans-Bold-65" x="1103.857422"/>
            <use xlink:href="#DejaVuSans-Bold-72" x="1171.679688"/>
            <use xlink:href="#DejaVuSans-Bold-61" x="1220.996094"/>
            <use xlink:href="#DejaVuSans-Bold-74" x="1288.476562"/>
            <use xlink:href="#DejaVuSans-Bold-69" x="1336.279297"/>
            <use xlink:href="#DejaVuSans-Bold-6f" x="1370.556641"/>
            <use xlink:href="#DejaVuSans-Bold-6e" x="1439.257812"/>
            <use xlink:href="#DejaVuSans-Bold-20" x="1510.449219"/>
            <use xlink:href="#DejaVuSans-Bold-50" x="1545.263672"/>
            <use xlink:href="#DejaVuSans-Bold-69" x="1618.554688"/>
            <use xlink:href="#DejaVuSans-Bold-70" x="1652.832031"/>
            <use xlink:href="#DejaVuSans-Bold-65" x="1724.414062"/>
            <use xlink:href="#DejaVuSans-Bold-6c" x="1792.236328"/>
            <use xlink:href="#DejaVuSans-Bold-69" x="1826.513672"/>
            <use xlink:href="#DejaVuSans-Bold-6e" x="1860.791016"/>
            <use xlink:href="#DejaVuSans-Bold-65" x="1931.982422"/>
           </g>
          </g>
          <g id="text_2">
           <!-- Input -->
           <g style="fill: #111827" transform="translate(114.32375 106.010132) scale(0.16 -0.16)">
            <defs>
             <path id="DejaVuSans-Bold-49" d="M 588 4666 
L 1791 4666 
L 1791 0 
L 588 0 
L 588 4666 
z
" transform="scale(0.015625)"/>
            </defs>
            <use xlink:href="#DejaVuSans-Bold-49"/>
            <use xlink:href="#DejaVuSans-Bold-6e" x="37.207031"/>
            <use xlink:href="#DejaVuSans-Bold-70" x="108.398438"/>
            <use xlink:href="#DejaVuSans-Bold-75" x="179.980469"/>
            <use xlink:href="#DejaVuSans-Bold-74" x="251.171875"/>
           </g>
          </g>
          <g id="text_3">
           <!-- • Dish name -->
           <g style="fill: #111827" transform="translate(58.4064 122.423388) scale(0.12 -0.12)">
            <defs>
             <path id="DejaVuSans-2022" d="M 959 2381 
Q 959 2769 1229 3036 
Q 1500 3303 1894 3303 
Q 2281 3303 2548 3036 
Q 2816 2769 2816 2381 
Q 2816 1991 2547 1722 
Q 2278 1453 1888 1453 
Q 1497 1453 1228 1722 
Q 959 1991 959 2381 
z
" transform="scale(0.015625)"/>
             <path id="DejaVuSans-20" transform="scale(0.015625)"/>
             <path id="DejaVuSans-44" d="M 1259 4147 
L 1259 519 
L 2022 519 
Q 2988 519 3436 956 
Q 3884 1394 3884 2338 
Q 3884 3275 3436 3711 
Q 2988 4147 2022 4147 
L 1259 4147 
z
M 628 4666 
L 1925 4666 
Q 3281 4666 3915 4102 
Q 4550 3538 4550 2338 
Q 4550 1131 3912 565 
Q 3275 0 1925 0 
L 628 0 
L 628 4666 
z
" transform="scale(0.015625)"/>
             <path id="DejaVuSans-69" d="M 603 3500 
L 1178 3500 
L 1178 0 
L 603 0 
L 603 3500 
z
M 603 4863 
L 1178 4863 
L 1178 4134 
L 603 4134 
L 603 4863 
z
" transform="scale(0.015625)"/>
             <path id="DejaVuSans-73" d="M 2834 3397 
L 2834 2853 
Q 2591 2978 2328 3040 
Q 2066 3103 1784 3103 
Q 1356 3103 1142 2972 
Q 928 2841 928 2578 
Q 928 2378 1081 2264 
Q 1234 2150 1697 2047 
L 1894 2003 
Q 2506 1872 2764 1633 
Q 3022 1394 3022 966 
Q 3022 478 2636 193 
Q 2250 -91 1575 -91 
Q 1294 -91 989 -36 
Q 684 19 347 128 
L 347 722 
Q 666 556 975 473 
Q 1284 391 1588 391 
Q 1994 391 2212 530 
Q 2431 669 2431 922 
Q 2431 1156 2273 1281 
Q 2116 1406 1581 1522 
L 1381 1569 
Q 847 1681 609 1914 
Q 372 2147 372 2553 
Q 372 3047 722 3315 
Q 1072 3584 1716 3584 
Q 2034 3584 2315 3537 
Q 2597 3491 2834 3397 
z
" transform="scale(0.015625)"/>
             <path id="DejaVuSans-68" d="M 3513 2113 
L 3513 0 
L 2938 0 
L 2938 2094 
Q 2938 2591 2744 2837 
Q 2550 3084 2163 3084 
Q 1697 3084 1428 2787 
Q 1159 2491 1159 1978 
L 1159 0 
L 581 0 
L 581 4863 
L 1159 4863 
L 1159 2956 
Q 1366 3272 1645 3428 
Q 1925 3584 2291 3584 
Q 2894 3584 3203 3211 
Q 3513 2838 3513 2113 
z
" transform="scale(0.015625)"/>
             <path id="DejaVuSans-6e" d="M 3513 2113 
L 3513 0 
L 2938 0 
L 2938 2094 
Q 2938 2591 2744 2837 
Q 2550 3084 2163 3084 
Q 1697 3084 1428 2787 
Q 1159 2491 1159 1978 
L 1159 0 
L 581 0 
L 581 3500 
L 1159 3500 
L 1159 2956 
Q 1366 3272 1645 3428 
Q 1925 3584 2291 3584 
Q 2894 3584 3203 3211 
Q 3513 2838 3513 2113 
z
" transform="scale(0.015625)"/>
             <path id="DejaVuSans-61" d="M 2194 1759 
Q 1497 1759 1228 1600 
Q 959 1441 959 1056 
Q 959 750 1161 570 
Q 1363 391 1709 391 
Q 2188 391 2477 730 
Q 2766 1069 2766 1631 
L 2766 1759 
L 2194 1759 
z
M 3341 1997 
L 3341 0 
L 2766 0 
L 2766 531 
Q 2569 213 2275 61 
Q 1981 -91 1556 -91 
Q 1019 -91 701 211 
Q 384 513 384 1019 
Q 384 1609 779 1909 
Q 1175 2209 1959 2209 
L 2766 2209 
L 2766 2266 
Q 2766 2663 2505 2880 
Q 2244 3097 1772 3097 
Q 1472 3097 1187 3025 
Q 903 2953 641 2809 
L 641 3341 
Q 956 3463 1253 3523 
Q 1550 3584 1831 3584 
Q 2591 3584 2966 3190 
Q 3341 2797 3341 1997 
z
" transform="scale(0.015625)"/>
             <path id="DejaVuSans-6d" d="M 3328 2828 
Q 3544 3216 3844 3400 
Q 4144 3584 4550 3584 
Q 5097 3584 5394 3201 
Q 5691 2819 5691 2113 
L 5691 0 
L 5113 0 
L 5113 2094 
Q 5113 2597 4934 2840 
Q 4756 3084 4391 3084 
Q 3944 3084 3684 2787 
Q 3425 2491 3425 1978 
L 3425 0 
L 2847 0 
L 2847 2094 
Q 2847 2600 2669 2842 
Q 2491 3084 2119 3084 
Q 1678 3084 1418 2786 
Q 1159 2488 1159 1978 
L 1159 0 
L 581 0 
L 581 3500 
L 1159 3500 
L 1159 2956 
Q 1356 3278 1631 3431 
Q 1906 3584 2284 3584 
Q 2666 3584 2933 3390 
Q 3200 3197 3328 2828 
z
" transform="scale(0.015625)"/>
             <path id="DejaVuSans-65" d="M 3597 1894 
L 3597 1613 
L 953 1613 
Q 991 1019 1311 708 
Q 1631 397 2203 397 
Q 2534 397 2845 478 
Q 3156 559 3463 722 
L 3463 178 
Q 3153 47 2828 -22 
Q 2503 -91 2169 -91 
Q 1331 -91 842 396 
Q 353 884 353 1716 
Q 353 2575 817 3079 
Q 1281 3584 2069 3584 
Q 2775 3584 3186 3129 
Q 3597 2675 3597 1894 
z
M 3022 2063 
Q 3016 2534 2758 2815 
Q 2500 3097 2075 3097 
Q 1594 3097 1305 2825 
Q 1016 2553 972 2059 
L 3022 2063 
z
" transform="scale(0.015625)"/>
            </defs>
            <use xlink:href="#DejaVuSans-2022"/>
            <use xlink:href="#DejaVuSans-20" x="58.984375"/>
            <use xlink:href="#DejaVuSans-44" x="90.771484"/>
            <use xlink:href="#DejaVuSans-69" x="167.773438"/>
            <use xlink:href="#DejaVuSans-73" x="195.556641"/>
            <use xlink:href="#DejaVuSans-68" x="247.65625"/>
            <use xlink:href="#DejaVuSans-20" x="311.035156"/>
            <use xlink:href="#DejaVuSans-6e" x="342.822266"/>
            <use xlink:href="#DejaVuSans-61" x="406.201172"/>
            <use xlink:href="#DejaVuSans-6d" x="467.480469"/>
            <use xlink:href="#DejaVuSans-65" x="564.892578"/>
           </g>
           <!-- • Optional target calories -->
           <g style="fill: #111827" transform="translate(58.4064 137.228482) scale(0.12 -0.12)">
            <defs>
             <path id="DejaVuSans-4f" d="M 2522 4238 
Q 1834 4238 1429 3725 
Q 1025 3213 1025 2328 
Q 1025 1447 1429 934 
Q 1834 422 2522 422 
Q 3209 422 3611 934 
Q 4013 1447 4013 2328 
Q 4013 3213 3611 3725 
Q 3209 4238 2522 4238 
z
M 2522 4750 
Q 3503 4750 4090 4092 
Q 4678 3434 4678 2328 
Q 4678 1225 4090 567 
Q 3503 -91 2522 -91 
Q 1538 -91 948 565 
Q 359 1222 359 2328 
Q 359 3434 948 4092 
Q 1538 4750 2522 4750 
z
" transform="scale(0.015625)"/>
             <path id="DejaVuSans-70" d="M 1159 525 
L 1159 -1331 
L 581 -1331 
L 581 3500 
L 1159 3500 
L 1159 2969 
Q 1341 3281 1617 3432 
Q 1894 3584 2278 3584 
Q 2916 3584 3314 3078 
Q 3713 2572 3713 1747 
Q 3713 922 3314 415 
Q 2916 -91 2278 -91 
Q 1894 -91 1617 61 
Q 1341 213 1159 525 
z
M 3116 1747 
Q 3116 2381 2855 2742 
Q 2594 3103 2138 3103 
Q 1681 3103 1420 2742 
Q 1159 2381 1159 1747 
Q 1159 1113 1420 752 
Q 1681 391 2138 391 
Q 2594 391 2855 752 
Q 3116 1113 3116 1747 
z
" transform="scale(0.015625)"/>
             <path id="DejaVuSans-74" d="M 1172 4494 
L 1172 3500 
L 2356 3500 
L 2356 3053 
L 1172 3053 
L 1172 1153 
Q 1172 725 1289 603 
Q 1406 481 1766 481 
L 2356 481 
L 2356 0 
L 1766 0 
Q 1100 0 847 248 
Q 594 497 594 1153 
L 594 3053 
L 172 3053 
L 172 3500 
L 594 3500 
L 594 4494 
L 1172 4494 
z
" transform="scale(0.015625)"/>
             <path id="DejaVuSans-6f" d="M 1959 3097 
Q 1497 3097 1228 2736 
Q 959 2375 959 1747 
Q 959 1119 1226 758 
Q 1494 397 1959 397 
Q 2419 397 2687 759 
Q 2956 1122 2956 1747 
Q 2956 2369 2687 2733 
Q 2419 3097 1959 3097 
z
M 1959 3584 
Q 2709 3584 3137 3096 
Q 3566 2609 3566 1747 
Q 3566 888 3137 398 
Q 2709 -91 1959 -91 
Q 1206 -91 779 398 
Q 353 888 353 1747 
Q 353 2609 779 3096 
Q 1206 3584 1959 3584 
z
" transform="scale(0.015625)"/>
             <path id="DejaVuSans-6c" d="M 603 4863 
L 1178 4863 
L 1178 0 
L 603 0 
L 603 4863 
z
" transform="scale(0.015625)"/>
             <path id="DejaVuSans-72" d="M 2631 2963 
Q 2534 3019 2420 3045 
Q 2306 3072 2169 3072 
Q 1681 3072 1420 2755 
Q 1159 2438 1159 1844 
L 1159 0 
L 581 0 
L 581 3500 
L 1159 3500 
L 1159 2956 
Q 1341 3275 1631 3429 
Q 1922 3584 2338 3584 
Q 2397 3584 2469 3576 
Q 2541 3569 2628 3553 
L 2631 2963 
z
" transform="scale(0.015625)"/>
             <path id="DejaVuSans-67" d="M 2906 1791 
Q 2906 2416 2648 2759 
Q 2391 3103 1925 3103 
Q 1463 3103 1205 2759 
Q 947 2416 947 1791 
Q 947 1169 1205 825 
Q 1463 481 1925 481 
Q 2391 481 2648 825 
Q 2906 1169 2906 1791 
z
M 3481 434 
Q 3481 -459 3084 -895 
Q 2688 -1331 1869 -1331 
Q 1566 -1331 1297 -1286 
Q 1028 -1241 775 -1147 
L 775 -588 
Q 1028 -725 1275 -790 
Q 1522 -856 1778 -856 
Q 2344 -856 2625 -561 
Q 2906 -266 2906 331 
L 2906 616 
Q 2728 306 2450 153 
Q 2172 0 1784 0 
Q 1141 0 747 490 
Q 353 981 353 1791 
Q 353 2603 747 3093 
Q 1141 3584 1784 3584 
Q 2172 3584 2450 3431 
Q 2728 3278 2906 2969 
L 2906 3500 
L 3481 3500 
L 3481 434 
z
" transform="scale(0.015625)"/>
             <path id="DejaVuSans-63" d="M 3122 3366 
L 3122 2828 
Q 2878 2963 2633 3030 
Q 2388 3097 2138 3097 
Q 1578 3097 1268 2742 
Q 959 2388 959 1747 
Q 959 1106 1268 751 
Q 1578 397 2138 397 
Q 2388 397 2633 464 
Q 2878 531 3122 666 
L 3122 134 
Q 2881 22 2623 -34 
Q 2366 -91 2075 -91 
Q 1284 -91 818 406 
Q 353 903 353 1747 
Q 353 2603 823 3093 
Q 1294 3584 2113 3584 
Q 2378 3584 2631 3529 
Q 2884 3475 3122 3366 
z
" transform="scale(0.015625)"/>
            </defs>
            <use xlink:href="#DejaVuSans-2022"/>
            <use xlink:href="#DejaVuSans-20" x="58.984375"/>
            <use xlink:href="#DejaVuSans-4f" x="90.771484"/>
            <use xlink:href="#DejaVuSans-70" x="169.482422"/>
            <use xlink:href="#DejaVuSans-74" x="232.958984"/>
            <use xlink:href="#DejaVuSans-69" x="272.167969"/>
            <use xlink:href="#DejaVuSans-6f" x="299.951172"/>
            <use xlink:href="#DejaVuSans-6e" x="361.132812"/>
            <use xlink:href="#DejaVuSans-61" x="424.511719"/>
            <use xlink:href="#DejaVuSans-6c" x="485.791016"/>
            <use xlink:href="#DejaVuSans-20" x="513.574219"/>
            <use xlink:href="#DejaVuSans-74" x="545.361328"/>
            <use xlink:href="#DejaVuSans-61" x="584.570312"/>
            <use xlink:href="#DejaVuSans-72" x="645.849609"/>
            <use xlink:href="#DejaVuSans-67" x="685.212891"/>
            <use xlink:href="#DejaVuSans-65" x="748.689453"/>
            <use xlink:href="#DejaVuSans-74" x="810.212891"/>
            <use xlink:href="#DejaVuSans-20" x="849.421875"/>
            <use xlink:href="#DejaVuSans-63" x="881.208984"/>
            <use xlink:href="#DejaVuSans-61" x="936.189453"/>
            <use xlink:href="#DejaVuSans-6c" x="997.46875"/>
            <use xlink:href="#DejaVuSans-6f" x="1025.251953"/>
            <use xlink:href="#DejaVuSans-72" x="1086.433594"/>
            <use xlink:href="#DejaVuSans-69" x="1127.546875"/>
            <use xlink:href="#DejaVuSans-65" x="1155.330078"/>
            <use xlink:href="#DejaVuSans-73" x="1216.853516"/>
           </g>
          </g>
          <g id="text_4">
           <!-- Embedding -->
           <g style="fill: #111827" transform="translate(309.43 229.799605) scale(0.16 -0.16)">
            <defs>
             <path id="DejaVuSans-Bold-45" d="M 588 4666 
L 3834 4666 
L 3834 3756 
L 1791 3756 
L 1791 2888 
L 3713 2888 
L 3713 1978 
L 1791 1978 
L 1791 909 
L 3903 909 
L 3903 0 
L 588 0 
L 588 4666 
z
" transform="scale(0.015625)"/>
             <path id="DejaVuSans-Bold-6d" d="M 3781 2919 
Q 3994 3244 4286 3414 
Q 4578 3584 4928 3584 
Q 5531 3584 5847 3212 
Q 6163 2841 6163 2131 
L 6163 0 
L 5038 0 
L 5038 1825 
Q 5041 1866 5042 1909 
Q 5044 1953 5044 2034 
Q 5044 2406 4934 2573 
Q 4825 2741 4581 2741 
Q 4263 2741 4089 2478 
Q 3916 2216 3909 1719 
L 3909 0 
L 2784 0 
L 2784 1825 
Q 2784 2406 2684 2573 
Q 2584 2741 2328 2741 
Q 2006 2741 1831 2477 
Q 1656 2213 1656 1722 
L 1656 0 
L 531 0 
L 531 3500 
L 1656 3500 
L 1656 2988 
Q 1863 3284 2130 3434 
Q 2397 3584 2719 3584 
Q 3081 3584 3359 3409 
Q 3638 3234 3781 2919 
z
" transform="scale(0.015625)"/>
             <path id="DejaVuSans-Bold-64" d="M 2919 2988 
L 2919 4863 
L 4044 4863 
L 4044 0 
L 2919 0 
L 2919 506 
Q 2688 197 2409 53 
Q 2131 -91 1766 -91 
Q 1119 -91 703 423 
Q 288 938 288 1747 
Q 288 2556 703 3070 
Q 1119 3584 1766 3584 
Q 2128 3584 2408 3439 
Q 2688 3294 2919 2988 
z
M 2181 722 
Q 2541 722 2730 984 
Q 2919 1247 2919 1747 
Q 2919 2247 2730 2509 
Q 2541 2772 2181 2772 
Q 1825 2772 1636 2509 
Q 1447 2247 1447 1747 
Q 1447 1247 1636 984 
Q 1825 722 2181 722 
z
" transform="scale(0.015625)"/>
             <path id="DejaVuSans-Bold-67" d="M 2919 594 
Q 2688 288 2409 144 
Q 2131 0 1766 0 
Q 1125 0 706 504 
Q 288 1009 288 1791 
Q 288 2575 706 3076 
Q 1125 3578 1766 3578 
Q 2131 3578 2409 3434 
Q 2688 3291 2919 2981 
L 2919 3500 
L 4044 3500 
L 4044 353 
Q 4044 -491 3511 -936 
Q 2978 -1381 1966 -1381 
Q 1638 -1381 1331 -1331 
Q 1025 -1281 716 -1178 
L 716 -306 
Q 1009 -475 1290 -558 
Q 1572 -641 1856 -641 
Q 2406 -641 2662 -400 
Q 2919 -159 2919 353 
L 2919 594 
z
M 2181 2772 
Q 1834 2772 1640 2515 
Q 1447 2259 1447 1791 
Q 1447 1309 1634 1061 
Q 1822 813 2181 813 
Q 2531 813 2725 1069 
Q 2919 1325 2919 1791 
Q 2919 2259 2725 2515 
Q 2531 2772 2181 2772 
z
" transform="scale(0.015625)"/>
            </defs>
            <use xlink:href="#DejaVuSans-Bold-45"/>
            <use xlink:href="#DejaVuSans-Bold-6d" x="68.310547"/>
            <use xlink:href="#DejaVuSans-Bold-62" x="172.509766"/>
            <use xlink:href="#DejaVuSans-Bold-65" x="244.091797"/>
            <use xlink:href="#DejaVuSans-Bold-64" x="311.914062"/>
            <use xlink:href="#DejaVuSans-Bold-64" x="383.496094"/>
            <use xlink:href="#DejaVuSans-Bold-69" x="455.078125"/>
            <use xlink:href="#DejaVuSans-Bold-6e" x="489.355469"/>
            <use xlink:href="#DejaVuSans-Bold-67" x="560.546875"/>
           </g>
          </g>
          <g id="text_5">
           <!-- • Sentence-transformers -->
           <g style="fill: #111827" transform="translate(280.1664 246.212862) scale(0.12 -0.12)">
            <defs>
             <path id="DejaVuSans-53" d="M 3425 4513 
L 3425 3897 
Q 3066 4069 2747 4153 
Q 2428 4238 2131 4238 
Q 1616 4238 1336 4038 
Q 1056 3838 1056 3469 
Q 1056 3159 1242 3001 
Q 1428 2844 1947 2747 
L 2328 2669 
Q 3034 2534 3370 2195 
Q 3706 1856 3706 1288 
Q 3706 609 3251 259 
Q 2797 -91 1919 -91 
Q 1588 -91 1214 -16 
Q 841 59 441 206 
L 441 856 
Q 825 641 1194 531 
Q 1563 422 1919 422 
Q 2459 422 2753 634 
Q 3047 847 3047 1241 
Q 3047 1584 2836 1778 
Q 2625 1972 2144 2069 
L 1759 2144 
Q 1053 2284 737 2584 
Q 422 2884 422 3419 
Q 422 4038 858 4394 
Q 1294 4750 2059 4750 
Q 2388 4750 2728 4690 
Q 3069 4631 3425 4513 
z
" transform="scale(0.015625)"/>
             <path id="DejaVuSans-2d" d="M 313 2009 
L 1997 2009 
L 1997 1497 
L 313 1497 
L 313 2009 
z
" transform="scale(0.015625)"/>
             <path id="DejaVuSans-66" d="M 2375 4863 
L 2375 4384 
L 1825 4384 
Q 1516 4384 1395 4259 
Q 1275 4134 1275 3809 
L 1275 3500 
L 2222 3500 
L 2222 3053 
L 1275 3053 
L 1275 0 
L 697 0 
L 697 3053 
L 147 3053 
L 147 3500 
L 697 3500 
L 697 3744 
Q 697 4328 969 4595 
Q 1241 4863 1831 4863 
L 2375 4863 
z
" transform="scale(0.015625)"/>
            </defs>
            <use xlink:href="#DejaVuSans-2022"/>
            <use xlink:href="#DejaVuSans-20" x="58.984375"/>
            <use xlink:href="#DejaVuSans-53" x="90.771484"/>
            <use xlink:href="#DejaVuSans-65" x="154.248047"/>
            <use xlink:href="#DejaVuSans-6e" x="215.771484"/>
            <use xlink:href="#DejaVuSans-74" x="279.150391"/>
            <use xlink:href="#DejaVuSans-65" x="318.359375"/>
            <use xlink:href="#DejaVuSans-6e" x="379.882812"/>
            <use xlink:href="#DejaVuSans-63" x="443.261719"/>
            <use xlink:href="#DejaVuSans-65" x="498.242188"/>
            <use xlink:href="#DejaVuSans-2d" x="559.765625"/>
            <use xlink:href="#DejaVuSans-74" x="595.849609"/>
            <use xlink:href="#DejaVuSans-72" x="635.058594"/>
            <use xlink:href="#DejaVuSans-61" x="676.171875"/>
            <use xlink:href="#DejaVuSans-6e" x="737.451172"/>
            <use xlink:href="#DejaVuSans-73" x="800.830078"/>
            <use xlink:href="#DejaVuSans-66" x="852.929688"/>
            <use xlink:href="#DejaVuSans-6f" x="888.134766"/>
            <use xlink:href="#DejaVuSans-72" x="949.316406"/>
            <use xlink:href="#DejaVuSans-6d" x="988.679688"/>
            <use xlink:href="#DejaVuSans-65" x="1086.091797"/>
            <use xlink:href="#DejaVuSans-72" x="1147.615234"/>
            <use xlink:href="#DejaVuSans-73" x="1188.728516"/>
           </g>
           <!-- • 384-dim vector -->
           <g style="fill: #111827" transform="translate(280.1664 261.017956) scale(0.12 -0.12)">
            <defs>
             <path id="DejaVuSans-33" d="M 2597 2516 
Q 3050 2419 3304 2112 
Q 3559 1806 3559 1356 
Q 3559 666 3084 287 
Q 2609 -91 1734 -91 
Q 1441 -91 1130 -33 
Q 819 25 488 141 
L 488 750 
Q 750 597 1062 519 
Q 1375 441 1716 441 
Q 2309 441 2620 675 
Q 2931 909 2931 1356 
Q 2931 1769 2642 2001 
Q 2353 2234 1838 2234 
L 1294 2234 
L 1294 2753 
L 1863 2753 
Q 2328 2753 2575 2939 
Q 2822 3125 2822 3475 
Q 2822 3834 2567 4026 
Q 2313 4219 1838 4219 
Q 1578 4219 1281 4162 
Q 984 4106 628 3988 
L 628 4550 
Q 988 4650 1302 4700 
Q 1616 4750 1894 4750 
Q 2613 4750 3031 4423 
Q 3450 4097 3450 3541 
Q 3450 3153 3228 2886 
Q 3006 2619 2597 2516 
z
" transform="scale(0.015625)"/>
             <path id="DejaVuSans-38" d="M 2034 2216 
Q 1584 2216 1326 1975 
Q 1069 1734 1069 1313 
Q 1069 891 1326 650 
Q 1584 409 2034 409 
Q 2484 409 2743 651 
Q 3003 894 3003 1313 
Q 3003 1734 2745 1975 
Q 2488 2216 2034 2216 
z
M 1403 2484 
Q 997 2584 770 2862 
Q 544 3141 544 3541 
Q 544 4100 942 4425 
Q 1341 4750 2034 4750 
Q 2731 4750 3128 4425 
Q 3525 4100 3525 3541 
Q 3525 3141 3298 2862 
Q 3072 2584 2669 2484 
Q 3125 2378 3379 2068 
Q 3634 1759 3634 1313 
Q 3634 634 3220 271 
Q 2806 -91 2034 -91 
Q 1263 -91 848 271 
Q 434 634 434 1313 
Q 434 1759 690 2068 
Q 947 2378 1403 2484 
z
M 1172 3481 
Q 1172 3119 1398 2916 
Q 1625 2713 2034 2713 
Q 2441 2713 2670 2916 
Q 2900 3119 2900 3481 
Q 2900 3844 2670 4047 
Q 2441 4250 2034 4250 
Q 1625 4250 1398 4047 
Q 1172 3844 1172 3481 
z
" transform="scale(0.015625)"/>
             <path id="DejaVuSans-34" d="M 2419 4116 
L 825 1625 
L 2419 1625 
L 2419 4116 
z
M 2253 4666 
L 3047 4666 
L 3047 1625 
L 3713 1625 
L 3713 1100 
L 3047 1100 
L 3047 0 
L 2419 0 
L 2419 1100 
L 313 1100 
L 313 1709 
L 2253 4666 
z
" transform="scale(0.015625)"/>
             <path id="DejaVuSans-64" d="M 2906 2969 
L 2906 4863 
L 3481 4863 
L 3481 0 
L 2906 0 
L 2906 525 
Q 2725 213 2448 61 
Q 2172 -91 1784 -91 
Q 1150 -91 751 415 
Q 353 922 353 1747 
Q 353 2572 751 3078 
Q 1150 3584 1784 3584 
Q 2172 3584 2448 3432 
Q 2725 3281 2906 2969 
z
M 947 1747 
Q 947 1113 1208 752 
Q 1469 391 1925 391 
Q 2381 391 2643 752 
Q 2906 1113 2906 1747 
Q 2906 2381 2643 2742 
Q 2381 3103 1925 3103 
Q 1469 3103 1208 2742 
Q 947 2381 947 1747 
z
" transform="scale(0.015625)"/>
             <path id="DejaVuSans-76" d="M 191 3500 
L 800 3500 
L 1894 563 
L 2988 3500 
L 3597 3500 
L 2284 0 
L 1503 0 
L 191 3500 
z
" transform="scale(0.015625)"/>
            </defs>
            <use xlink:href="#DejaVuSans-2022"/>
            <use xlink:href="#DejaVuSans-20" x="58.984375"/>
            <use xlink:href="#DejaVuSans-33" x="90.771484"/>
            <use xlink:href="#DejaVuSans-38" x="154.394531"/>
            <use xlink:href="#DejaVuSans-34" x="218.017578"/>
            <use xlink:href="#DejaVuSans-2d" x="281.640625"/>
            <use xlink:href="#DejaVuSans-64" x="317.724609"/>
            <use xlink:href="#DejaVuSans-69" x="381.201172"/>
            <use xlink:href="#DejaVuSans-6d" x="408.984375"/>
            <use xlink:href="#DejaVuSans-20" x="506.396484"/>
            <use xlink:href="#DejaVuSans-76" x="538.183594"/>
            <use xlink:href="#DejaVuSans-65" x="597.363281"/>
            <use xlink:href="#DejaVuSans-63" x="658.886719"/>
            <use xlink:href="#DejaVuSans-74" x="713.867188"/>
            <use xlink:href="#DejaVuSans-6f" x="753.076172"/>
            <use xlink:href="#DejaVuSans-72" x="814.257812"/>
           </g>
          </g>
          <g id="text_6">
           <!-- Retrieval -->
           <g style="fill: #111827" transform="translate(97.36 353.589079) scale(0.16 -0.16)">
            <defs>
             <path id="DejaVuSans-Bold-52" d="M 2297 2597 
Q 2675 2597 2839 2737 
Q 3003 2878 3003 3200 
Q 3003 3519 2839 3656 
Q 2675 3794 2297 3794 
L 1791 3794 
L 1791 2597 
L 2297 2597 
z
M 1791 1766 
L 1791 0 
L 588 0 
L 588 4666 
L 2425 4666 
Q 3347 4666 3776 4356 
Q 4206 4047 4206 3378 
Q 4206 2916 3982 2619 
Q 3759 2322 3309 2181 
Q 3556 2125 3751 1926 
Q 3947 1728 4147 1325 
L 4800 0 
L 3519 0 
L 2950 1159 
Q 2778 1509 2601 1637 
Q 2425 1766 2131 1766 
L 1791 1766 
z
" transform="scale(0.015625)"/>
             <path id="DejaVuSans-Bold-76" d="M 97 3500 
L 1216 3500 
L 2088 1081 
L 2956 3500 
L 4078 3500 
L 2700 0 
L 1472 0 
L 97 3500 
z
" transform="scale(0.015625)"/>
            </defs>
            <use xlink:href="#DejaVuSans-Bold-52"/>
            <use xlink:href="#DejaVuSans-Bold-65" x="77.001953"/>
            <use xlink:href="#DejaVuSans-Bold-74" x="144.824219"/>
            <use xlink:href="#DejaVuSans-Bold-72" x="192.626953"/>
            <use xlink:href="#DejaVuSans-Bold-69" x="241.943359"/>
            <use xlink:href="#DejaVuSans-Bold-65" x="276.220703"/>
            <use xlink:href="#DejaVuSans-Bold-76" x="344.042969"/>
            <use xlink:href="#DejaVuSans-Bold-61" x="409.228516"/>
            <use xlink:href="#DejaVuSans-Bold-6c" x="476.708984"/>
           </g>
          </g>
          <g id="text_7">
           <!-- • pgvector cosine similarity -->
           <g style="fill: #111827" transform="translate(58.4064 370.002336) scale(0.12 -0.12)">
            <defs>
             <path id="DejaVuSans-79" d="M 2059 -325 
Q 1816 -950 1584 -1140 
Q 1353 -1331 966 -1331 
L 506 -1331 
L 506 -850 
L 844 -850 
Q 1081 -850 1212 -737 
Q 1344 -625 1503 -206 
L 1606 56 
L 191 3500 
L 800 3500 
L 1894 763 
L 2988 3500 
L 3597 3500 
L 2059 -325 
z
" transform="scale(0.015625)"/>
            </defs>
            <use xlink:href="#DejaVuSans-2022"/>
            <use xlink:href="#DejaVuSans-20" x="58.984375"/>
            <use xlink:href="#DejaVuSans-70" x="90.771484"/>
            <use xlink:href="#DejaVuSans-67" x="154.248047"/>
            <use xlink:href="#DejaVuSans-76" x="217.724609"/>
            <use xlink:href="#DejaVuSans-65" x="276.904297"/>
            <use xlink:href="#DejaVuSans-63" x="338.427734"/>
            <use xlink:href="#DejaVuSans-74" x="393.408203"/>
            <use xlink:href="#DejaVuSans-6f" x="432.617188"/>
            <use xlink:href="#DejaVuSans-72" x="493.798828"/>
            <use xlink:href="#DejaVuSans-20" x="534.912109"/>
            <use xlink:href="#DejaVuSans-63" x="566.699219"/>
            <use xlink:href="#DejaVuSans-6f" x="621.679688"/>
            <use xlink:href="#DejaVuSans-73" x="682.861328"/>
            <use xlink:href="#DejaVuSans-69" x="734.960938"/>
            <use xlink:href="#DejaVuSans-6e" x="762.744141"/>
            <use xlink:href="#DejaVuSans-65" x="826.123047"/>
            <use xlink:href="#DejaVuSans-20" x="887.646484"/>
            <use xlink:href="#DejaVuSans-73" x="919.433594"/>
            <use xlink:href="#DejaVuSans-69" x="971.533203"/>
            <use xlink:href="#DejaVuSans-6d" x="999.316406"/>
            <use xlink:href="#DejaVuSans-69" x="1096.728516"/>
            <use xlink:href="#DejaVuSans-6c" x="1124.511719"/>
            <use xlink:href="#DejaVuSans-61" x="1152.294922"/>
            <use xlink:href="#DejaVuSans-72" x="1213.574219"/>
            <use xlink:href="#DejaVuSans-69" x="1254.6875"/>
            <use xlink:href="#DejaVuSans-74" x="1282.470703"/>
            <use xlink:href="#DejaVuSans-79" x="1321.679688"/>
           </g>
           <!-- • Top-K dish variants -->
           <g style="fill: #111827" transform="translate(58.4064 384.807429) scale(0.12 -0.12)">
            <defs>
             <path id="DejaVuSans-54" d="M -19 4666 
L 3928 4666 
L 3928 4134 
L 2272 4134 
L 2272 0 
L 1638 0 
L 1638 4134 
L -19 4134 
L -19 4666 
z
" transform="scale(0.015625)"/>
             <path id="DejaVuSans-4b" d="M 628 4666 
L 1259 4666 
L 1259 2694 
L 3353 4666 
L 4166 4666 
L 1850 2491 
L 4331 0 
L 3500 0 
L 1259 2247 
L 1259 0 
L 628 0 
L 628 4666 
z
" transform="scale(0.015625)"/>
            </defs>
            <use xlink:href="#DejaVuSans-2022"/>
            <use xlink:href="#DejaVuSans-20" x="58.984375"/>
            <use xlink:href="#DejaVuSans-54" x="90.771484"/>
            <use xlink:href="#DejaVuSans-6f" x="134.855469"/>
            <use xlink:href="#DejaVuSans-70" x="196.037109"/>
            <use xlink:href="#DejaVuSans-2d" x="259.513672"/>
            <use xlink:href="#DejaVuSans-4b" x="295.597656"/>
            <use xlink:href="#DejaVuSans-20" x="361.173828"/>
            <use xlink:href="#DejaVuSans-64" x="392.960938"/>
            <use xlink:href="#DejaVuSans-69" x="456.4375"/>
            <use xlink:href="#DejaVuSans-73" x="484.220703"/>
            <use xlink:href="#DejaVuSans-68" x="536.320312"/>
            <use xlink:href="#DejaVuSans-20" x="599.699219"/>
            <use xlink:href="#DejaVuSans-76" x="631.486328"/>
            <use xlink:href="#DejaVuSans-61" x="690.666016"/>
            <use xlink:href="#DejaVuSans-72" x="751.945312"/>
            <use xlink:href="#DejaVuSans-69" x="793.058594"/>
            <use xlink:href="#DejaVuSans-61" x="820.841797"/>
            <use xlink:href="#DejaVuSans-6e" x="882.121094"/>
            <use xlink:href="#DejaVuSans-74" x="945.5"/>
            <use xlink:href="#DejaVuSans-73" x="984.708984"/>
           </g>
          </g>
          <g id="text_8">
           <!-- Mixture -->
           <g style="fill: #111827" transform="translate(325.24625 477.378553) scale(0.16 -0.16)">
            <defs>
             <path id="DejaVuSans-Bold-4d" d="M 588 4666 
L 2119 4666 
L 3181 2169 
L 4250 4666 
L 5778 4666 
L 5778 0 
L 4641 0 
L 4641 3413 
L 3566 897 
L 2803 897 
L 1728 3413 
L 1728 0 
L 588 0 
L 588 4666 
z
" transform="scale(0.015625)"/>
             <path id="DejaVuSans-Bold-78" d="M 1422 1791 
L 159 3500 
L 1344 3500 
L 2059 2463 
L 2784 3500 
L 3969 3500 
L 2706 1797 
L 4031 0 
L 2847 0 
L 2059 1106 
L 1281 0 
L 97 0 
L 1422 1791 
z
" transform="scale(0.015625)"/>
            </defs>
            <use xlink:href="#DejaVuSans-Bold-4d"/>
            <use xlink:href="#DejaVuSans-Bold-69" x="99.511719"/>
            <use xlink:href="#DejaVuSans-Bold-78" x="133.789062"/>
            <use xlink:href="#DejaVuSans-Bold-74" x="198.291016"/>
            <use xlink:href="#DejaVuSans-Bold-75" x="246.09375"/>
            <use xlink:href="#DejaVuSans-Bold-72" x="317.285156"/>
            <use xlink:href="#DejaVuSans-Bold-65" x="366.601562"/>
           </g>
          </g>
          <g id="text_9">
           <!-- • Weighted aggregation -->
           <g style="fill: #111827" transform="translate(280.1664 493.791809) scale(0.12 -0.12)">
            <defs>
             <path id="DejaVuSans-57" d="M 213 4666 
L 850 4666 
L 1831 722 
L 2809 4666 
L 3519 4666 
L 4500 722 
L 5478 4666 
L 6119 4666 
L 4947 0 
L 4153 0 
L 3169 4050 
L 2175 0 
L 1381 0 
L 213 4666 
z
" transform="scale(0.015625)"/>
            </defs>
            <use xlink:href="#DejaVuSans-2022"/>
            <use xlink:href="#DejaVuSans-20" x="58.984375"/>
            <use xlink:href="#DejaVuSans-57" x="90.771484"/>
            <use xlink:href="#DejaVuSans-65" x="183.773438"/>
            <use xlink:href="#DejaVuSans-69" x="245.296875"/>
            <use xlink:href="#DejaVuSans-67" x="273.080078"/>
            <use xlink:href="#DejaVuSans-68" x="336.556641"/>
            <use xlink:href="#DejaVuSans-74" x="399.935547"/>
            <use xlink:href="#DejaVuSans-65" x="439.144531"/>
            <use xlink:href="#DejaVuSans-64" x="500.667969"/>
            <use xlink:href="#DejaVuSans-20" x="564.144531"/>
            <use xlink:href="#DejaVuSans-61" x="595.931641"/>
            <use xlink:href="#DejaVuSans-67" x="657.210938"/>
            <use xlink:href="#DejaVuSans-67" x="720.6875"/>
            <use xlink:href="#DejaVuSans-72" x="784.164062"/>
            <use xlink:href="#DejaVuSans-65" x="823.027344"/>
            <use xlink:href="#DejaVuSans-67" x="884.550781"/>
            <use xlink:href="#DejaVuSans-61" x="948.027344"/>
            <use xlink:href="#DejaVuSans-74" x="1009.306641"/>
            <use xlink:href="#DejaVuSans-69" x="1048.515625"/>
            <use xlink:href="#DejaVuSans-6f" x="1076.298828"/>
            <use xlink:href="#DejaVuSans-6e" x="1137.480469"/>
           </g>
           <!-- • Limits dominance -->
           <g style="fill: #111827" transform="translate(280.1664 508.596903) scale(0.12 -0.12)">
            <defs>
             <path id="DejaVuSans-4c" d="M 628 4666 
L 1259 4666 
L 1259 531 
L 3531 531 
L 3531 0 
L 628 0 
L 628 4666 
z
" transform="scale(0.015625)"/>
            </defs>
            <use xlink:href="#DejaVuSans-2022"/>
            <use xlink:href="#DejaVuSans-20" x="58.984375"/>
            <use xlink:href="#DejaVuSans-4c" x="90.771484"/>
            <use xlink:href="#DejaVuSans-69" x="146.484375"/>
            <use xlink:href="#DejaVuSans-6d" x="174.267578"/>
            <use xlink:href="#DejaVuSans-69" x="271.679688"/>
            <use xlink:href="#DejaVuSans-74" x="299.462891"/>
            <use xlink:href="#DejaVuSans-73" x="338.671875"/>
            <use xlink:href="#DejaVuSans-20" x="390.771484"/>
            <use xlink:href="#DejaVuSans-64" x="422.558594"/>
            <use xlink:href="#DejaVuSans-6f" x="486.035156"/>
            <use xlink:href="#DejaVuSans-6d" x="547.216797"/>
            <use xlink:href="#DejaVuSans-69" x="644.628906"/>
            <use xlink:href="#DejaVuSans-6e" x="672.412109"/>
            <use xlink:href="#DejaVuSans-61" x="735.791016"/>
            <use xlink:href="#DejaVuSans-6e" x="797.070312"/>
            <use xlink:href="#DejaVuSans-63" x="860.449219"/>
            <use xlink:href="#DejaVuSans-65" x="915.429688"/>
           </g>
          </g>
          <g id="text_10">
           <!-- Scaling -->
           <g style="fill: #111827" transform="translate(105.43125 601.168026) scale(0.16 -0.16)">
            <defs>
             <path id="DejaVuSans-Bold-53" d="M 3834 4519 
L 3834 3531 
Q 3450 3703 3084 3790 
Q 2719 3878 2394 3878 
Q 1963 3878 1756 3759 
Q 1550 3641 1550 3391 
Q 1550 3203 1689 3098 
Q 1828 2994 2194 2919 
L 2706 2816 
Q 3484 2659 3812 2340 
Q 4141 2022 4141 1434 
Q 4141 663 3683 286 
Q 3225 -91 2284 -91 
Q 1841 -91 1394 -6 
Q 947 78 500 244 
L 500 1259 
Q 947 1022 1364 901 
Q 1781 781 2169 781 
Q 2563 781 2772 912 
Q 2981 1044 2981 1288 
Q 2981 1506 2839 1625 
Q 2697 1744 2272 1838 
L 1806 1941 
Q 1106 2091 782 2419 
Q 459 2747 459 3303 
Q 459 4000 909 4375 
Q 1359 4750 2203 4750 
Q 2588 4750 2994 4692 
Q 3400 4634 3834 4519 
z
" transform="scale(0.015625)"/>
             <path id="DejaVuSans-Bold-63" d="M 3366 3391 
L 3366 2478 
Q 3138 2634 2908 2709 
Q 2678 2784 2431 2784 
Q 1963 2784 1702 2511 
Q 1441 2238 1441 1747 
Q 1441 1256 1702 982 
Q 1963 709 2431 709 
Q 2694 709 2930 787 
Q 3166 866 3366 1019 
L 3366 103 
Q 3103 6 2833 -42 
Q 2563 -91 2291 -91 
Q 1344 -91 809 395 
Q 275 881 275 1747 
Q 275 2613 809 3098 
Q 1344 3584 2291 3584 
Q 2566 3584 2833 3536 
Q 3100 3488 3366 3391 
z
" transform="scale(0.015625)"/>
            </defs>
            <use xlink:href="#DejaVuSans-Bold-53"/>
            <use xlink:href="#DejaVuSans-Bold-63" x="72.021484"/>
            <use xlink:href="#DejaVuSans-Bold-61" x="131.298828"/>
            <use xlink:href="#DejaVuSans-Bold-6c" x="198.779297"/>
            <use xlink:href="#DejaVuSans-Bold-69" x="233.056641"/>
            <use xlink:href="#DejaVuSans-Bold-6e" x="267.333984"/>
            <use xlink:href="#DejaVuSans-Bold-67" x="338.525391"/>
           </g>
          </g>
          <g id="text_11">
           <!-- • Portion adjustment -->
           <g style="fill: #111827" transform="translate(58.4064 617.581283) scale(0.12 -0.12)">
            <defs>
             <path id="DejaVuSans-50" d="M 1259 4147 
L 1259 2394 
L 2053 2394 
Q 2494 2394 2734 2622 
Q 2975 2850 2975 3272 
Q 2975 3691 2734 3919 
Q 2494 4147 2053 4147 
L 1259 4147 
z
M 628 4666 
L 2053 4666 
Q 2838 4666 3239 4311 
Q 3641 3956 3641 3272 
Q 3641 2581 3239 2228 
Q 2838 1875 2053 1875 
L 1259 1875 
L 1259 0 
L 628 0 
L 628 4666 
z
" transform="scale(0.015625)"/>
             <path id="DejaVuSans-6a" d="M 603 3500 
L 1178 3500 
L 1178 -63 
Q 1178 -731 923 -1031 
Q 669 -1331 103 -1331 
L -116 -1331 
L -116 -844 
L 38 -844 
Q 366 -844 484 -692 
Q 603 -541 603 -63 
L 603 3500 
z
M 603 4863 
L 1178 4863 
L 1178 4134 
L 603 4134 
L 603 4863 
z
" transform="scale(0.015625)"/>
             <path id="DejaVuSans-75" d="M 544 1381 
L 544 3500 
L 1119 3500 
L 1119 1403 
Q 1119 906 1312 657 
Q 1506 409 1894 409 
Q 2359 409 2629 706 
Q 2900 1003 2900 1516 
L 2900 3500 
L 3475 3500 
L 3475 0 
L 2900 0 
L 2900 538 
Q 2691 219 2414 64 
Q 2138 -91 1772 -91 
Q 1169 -91 856 284 
Q 544 659 544 1381 
z
M 1991 3584 
L 1991 3584 
z
" transform="scale(0.015625)"/>
            </defs>
            <use xlink:href="#DejaVuSans-2022"/>
            <use xlink:href="#DejaVuSans-20" x="58.984375"/>
            <use xlink:href="#DejaVuSans-50" x="90.771484"/>
            <use xlink:href="#DejaVuSans-6f" x="147.449219"/>
            <use xlink:href="#DejaVuSans-72" x="208.630859"/>
            <use xlink:href="#DejaVuSans-74" x="249.744141"/>
            <use xlink:href="#DejaVuSans-69" x="288.953125"/>
            <use xlink:href="#DejaVuSans-6f" x="316.736328"/>
            <use xlink:href="#DejaVuSans-6e" x="377.917969"/>
            <use xlink:href="#DejaVuSans-20" x="441.296875"/>
            <use xlink:href="#DejaVuSans-61" x="473.083984"/>
            <use xlink:href="#DejaVuSans-64" x="534.363281"/>
            <use xlink:href="#DejaVuSans-6a" x="597.839844"/>
            <use xlink:href="#DejaVuSans-75" x="625.623047"/>
            <use xlink:href="#DejaVuSans-73" x="689.001953"/>
            <use xlink:href="#DejaVuSans-74" x="741.101562"/>
            <use xlink:href="#DejaVuSans-6d" x="780.310547"/>
            <use xlink:href="#DejaVuSans-65" x="877.722656"/>
            <use xlink:href="#DejaVuSans-6e" x="939.246094"/>
            <use xlink:href="#DejaVuSans-74" x="1002.625"/>
           </g>
           <!-- • Matches target calories -->
           <g style="fill: #111827" transform="translate(58.4064 632.386377) scale(0.12 -0.12)">
            <defs>
             <path id="DejaVuSans-4d" d="M 628 4666 
L 1569 4666 
L 2759 1491 
L 3956 4666 
L 4897 4666 
L 4897 0 
L 4281 0 
L 4281 4097 
L 3078 897 
L 2444 897 
L 1241 4097 
L 1241 0 
L 628 0 
L 628 4666 
z
" transform="scale(0.015625)"/>
            </defs>
            <use xlink:href="#DejaVuSans-2022"/>
            <use xlink:href="#DejaVuSans-20" x="58.984375"/>
            <use xlink:href="#DejaVuSans-4d" x="90.771484"/>
            <use xlink:href="#DejaVuSans-61" x="177.050781"/>
            <use xlink:href="#DejaVuSans-74" x="238.330078"/>
            <use xlink:href="#DejaVuSans-63" x="277.539062"/>
            <use xlink:href="#DejaVuSans-68" x="332.519531"/>
            <use xlink:href="#DejaVuSans-65" x="395.898438"/>
            <use xlink:href="#DejaVuSans-73" x="457.421875"/>
            <use xlink:href="#DejaVuSans-20" x="509.521484"/>
            <use xlink:href="#DejaVuSans-74" x="541.308594"/>
            <use xlink:href="#DejaVuSans-61" x="580.517578"/>
            <use xlink:href="#DejaVuSans-72" x="641.796875"/>
            <use xlink:href="#DejaVuSans-67" x="681.160156"/>
            <use xlink:href="#DejaVuSans-65" x="744.636719"/>
            <use xlink:href="#DejaVuSans-74" x="806.160156"/>
            <use xlink:href="#DejaVuSans-20" x="845.369141"/>
            <use xlink:href="#DejaVuSans-63" x="877.15625"/>
            <use xlink:href="#DejaVuSans-61" x="932.136719"/>
            <use xlink:href="#DejaVuSans-6c" x="993.416016"/>
            <use xlink:href="#DejaVuSans-6f" x="1021.199219"/>
            <use xlink:href="#DejaVuSans-72" x="1082.380859"/>
            <use xlink:href="#DejaVuSans-69" x="1123.494141"/>
            <use xlink:href="#DejaVuSans-65" x="1151.277344"/>
            <use xlink:href="#DejaVuSans-73" x="1212.800781"/>
           </g>
          </g>
          <g id="text_12">
           <!-- Confidence -->
           <g style="fill: #111827" transform="translate(309.69875 724.9575) scale(0.16 -0.16)">
            <defs>
             <path id="DejaVuSans-Bold-43" d="M 4288 256 
Q 3956 84 3597 -3 
Q 3238 -91 2847 -91 
Q 1681 -91 1000 561 
Q 319 1213 319 2328 
Q 319 3447 1000 4098 
Q 1681 4750 2847 4750 
Q 3238 4750 3597 4662 
Q 3956 4575 4288 4403 
L 4288 3438 
Q 3953 3666 3628 3772 
Q 3303 3878 2944 3878 
Q 2300 3878 1931 3465 
Q 1563 3053 1563 2328 
Q 1563 1606 1931 1193 
Q 2300 781 2944 781 
Q 3303 781 3628 887 
Q 3953 994 4288 1222 
L 4288 256 
z
" transform="scale(0.015625)"/>
             <path id="DejaVuSans-Bold-66" d="M 2841 4863 
L 2841 4128 
L 2222 4128 
Q 1984 4128 1890 4042 
Q 1797 3956 1797 3744 
L 1797 3500 
L 2753 3500 
L 2753 2700 
L 1797 2700 
L 1797 0 
L 678 0 
L 678 2700 
L 122 2700 
L 122 3500 
L 678 3500 
L 678 3744 
Q 678 4316 997 4589 
Q 1316 4863 1984 4863 
L 2841 4863 
z
" transform="scale(0.015625)"/>
            </defs>
            <use xlink:href="#DejaVuSans-Bold-43"/>
            <use xlink:href="#DejaVuSans-Bold-6f" x="73.388672"/>
            <use xlink:href="#DejaVuSans-Bold-6e" x="142.089844"/>
            <use xlink:href="#DejaVuSans-Bold-66" x="213.28125"/>
            <use xlink:href="#DejaVuSans-Bold-69" x="256.787109"/>
            <use xlink:href="#DejaVuSans-Bold-64" x="291.064453"/>
            <use xlink:href="#DejaVuSans-Bold-65" x="362.646484"/>
            <use xlink:href="#DejaVuSans-Bold-6e" x="430.46875"/>
            <use xlink:href="#DejaVuSans-Bold-63" x="501.660156"/>
            <use xlink:href="#DejaVuSans-Bold-65" x="560.9375"/>
           </g>
          </g>
          <g id="text_13">
           <!-- • Similarity-based score -->
           <g style="fill: #111827" transform="translate(280.1664 741.370757) scale(0.12 -0.12)">
            <defs>
             <path id="DejaVuSans-62" d="M 3116 1747 
Q 3116 2381 2855 2742 
Q 2594 3103 2138 3103 
Q 1681 3103 1420 2742 
Q 1159 2381 1159 1747 
Q 1159 1113 1420 752 
Q 1681 391 2138 391 
Q 2594 391 2855 752 
Q 3116 1113 3116 1747 
z
M 1159 2969 
Q 1341 3281 1617 3432 
Q 1894 3584 2278 3584 
Q 2916 3584 3314 3078 
Q 3713 2572 3713 1747 
Q 3713 922 3314 415 
Q 2916 -91 2278 -91 
Q 1894 -91 1617 61 
Q 1341 213 1159 525 
L 1159 0 
L 581 0 
L 581 4863 
L 1159 4863 
L 1159 2969 
z
" transform="scale(0.015625)"/>
            </defs>
            <use xlink:href="#DejaVuSans-2022"/>
            <use xlink:href="#DejaVuSans-20" x="58.984375"/>
            <use xlink:href="#DejaVuSans-53" x="90.771484"/>
            <use xlink:href="#DejaVuSans-69" x="154.248047"/>
            <use xlink:href="#DejaVuSans-6d" x="182.03125"/>
            <use xlink:href="#DejaVuSans-69" x="279.443359"/>
            <use xlink:href="#DejaVuSans-6c" x="307.226562"/>
            <use xlink:href="#DejaVuSans-61" x="335.009766"/>
            <use xlink:href="#DejaVuSans-72" x="396.289062"/>
            <use xlink:href="#DejaVuSans-69" x="437.402344"/>
            <use xlink:href="#DejaVuSans-74" x="465.185547"/>
            <use xlink:href="#DejaVuSans-79" x="504.394531"/>
            <use xlink:href="#DejaVuSans-2d" x="561.824219"/>
            <use xlink:href="#DejaVuSans-62" x="597.908203"/>
            <use xlink:href="#DejaVuSans-61" x="661.384766"/>
            <use xlink:href="#DejaVuSans-73" x="722.664062"/>
            <use xlink:href="#DejaVuSans-65" x="774.763672"/>
            <use xlink:href="#DejaVuSans-64" x="836.287109"/>
            <use xlink:href="#DejaVuSans-20" x="899.763672"/>
            <use xlink:href="#DejaVuSans-73" x="931.550781"/>
            <use xlink:href="#DejaVuSans-63" x="983.650391"/>
            <use xlink:href="#DejaVuSans-6f" x="1038.630859"/>
            <use xlink:href="#DejaVuSans-72" x="1099.8125"/>
            <use xlink:href="#DejaVuSans-65" x="1138.675781"/>
           </g>
           <!-- • Consistency penalty/bonus -->
           <g style="fill: #111827" transform="translate(280.1664 756.17585) scale(0.12 -0.12)">
            <defs>
             <path id="DejaVuSans-43" d="M 4122 4306 
L 4122 3641 
Q 3803 3938 3442 4084 
Q 3081 4231 2675 4231 
Q 1875 4231 1450 3742 
Q 1025 3253 1025 2328 
Q 1025 1406 1450 917 
Q 1875 428 2675 428 
Q 3081 428 3442 575 
Q 3803 722 4122 1019 
L 4122 359 
Q 3791 134 3420 21 
Q 3050 -91 2638 -91 
Q 1578 -91 968 557 
Q 359 1206 359 2328 
Q 359 3453 968 4101 
Q 1578 4750 2638 4750 
Q 3056 4750 3426 4639 
Q 3797 4528 4122 4306 
z
" transform="scale(0.015625)"/>
             <path id="DejaVuSans-2f" d="M 1625 4666 
L 2156 4666 
L 531 -594 
L 0 -594 
L 1625 4666 
z
" transform="scale(0.015625)"/>
            </defs>
            <use xlink:href="#DejaVuSans-2022"/>
            <use xlink:href="#DejaVuSans-20" x="58.984375"/>
            <use xlink:href="#DejaVuSans-43" x="90.771484"/>
            <use xlink:href="#DejaVuSans-6f" x="160.595703"/>
            <use xlink:href="#DejaVuSans-6e" x="221.777344"/>
            <use xlink:href="#DejaVuSans-73" x="285.15625"/>
            <use xlink:href="#DejaVuSans-69" x="337.255859"/>
            <use xlink:href="#DejaVuSans-73" x="365.039062"/>
            <use xlink:href="#DejaVuSans-74" x="417.138672"/>
            <use xlink:href="#DejaVuSans-65" x="456.347656"/>
            <use xlink:href="#DejaVuSans-6e" x="517.871094"/>
            <use xlink:href="#DejaVuSans-63" x="581.25"/>
            <use xlink:href="#DejaVuSans-79" x="636.230469"/>
            <use xlink:href="#DejaVuSans-20" x="695.410156"/>
            <use xlink:href="#DejaVuSans-70" x="727.197266"/>
            <use xlink:href="#DejaVuSans-65" x="790.673828"/>
            <use xlink:href="#DejaVuSans-6e" x="852.197266"/>
            <use xlink:href="#DejaVuSans-61" x="915.576172"/>
            <use xlink:href="#DejaVuSans-6c" x="976.855469"/>
            <use xlink:href="#DejaVuSans-74" x="1004.638672"/>
            <use xlink:href="#DejaVuSans-79" x="1043.847656"/>
            <use xlink:href="#DejaVuSans-2f" x="1103.027344"/>
            <use xlink:href="#DejaVuSans-62" x="1136.71875"/>
            <use xlink:href="#DejaVuSans-6f" x="1200.195312"/>
            <use xlink:href="#DejaVuSans-6e" x="1261.376953"/>
            <use xlink:href="#DejaVuSans-75" x="1324.755859"/>
            <use xlink:href="#DejaVuSans-73" x="1388.134766"/>
           </g>
          </g>
          <g id="text_14">
           <!-- Output -->
           <g style="fill: #111827" transform="translate(227.635 848.746974) scale(0.16 -0.16)">
            <defs>
             <path id="DejaVuSans-Bold-4f" d="M 2719 3878 
Q 2169 3878 1866 3472 
Q 1563 3066 1563 2328 
Q 1563 1594 1866 1187 
Q 2169 781 2719 781 
Q 3272 781 3575 1187 
Q 3878 1594 3878 2328 
Q 3878 3066 3575 3472 
Q 3272 3878 2719 3878 
z
M 2719 4750 
Q 3844 4750 4481 4106 
Q 5119 3463 5119 2328 
Q 5119 1197 4481 553 
Q 3844 -91 2719 -91 
Q 1597 -91 958 553 
Q 319 1197 319 2328 
Q 319 3463 958 4106 
Q 1597 4750 2719 4750 
z
" transform="scale(0.015625)"/>
            </defs>
            <use xlink:href="#DejaVuSans-Bold-4f"/>
            <use xlink:href="#DejaVuSans-Bold-75" x="85.009766"/>
            <use xlink:href="#DejaVuSans-Bold-74" x="156.201172"/>
            <use xlink:href="#DejaVuSans-Bold-70" x="204.003906"/>
            <use xlink:href="#DejaVuSans-Bold-75" x="275.585938"/>
            <use xlink:href="#DejaVuSans-Bold-74" x="346.777344"/>
           </g>
          </g>
          <g id="text_15">
           <!-- • Nutrition label -->
           <g style="fill: #111827" transform="translate(170.496 865.16023) scale(0.12 -0.12)">
            <defs>
             <path id="DejaVuSans-4e" d="M 628 4666 
L 1478 4666 
L 3547 763 
L 3547 4666 
L 4159 4666 
L 4159 0 
L 3309 0 
L 1241 3903 
L 1241 0 
L 628 0 
L 628 4666 
z
" transform="scale(0.015625)"/>
            </defs>
            <use xlink:href="#DejaVuSans-2022"/>
            <use xlink:href="#DejaVuSans-20" x="58.984375"/>
            <use xlink:href="#DejaVuSans-4e" x="90.771484"/>
            <use xlink:href="#DejaVuSans-75" x="165.576172"/>
            <use xlink:href="#DejaVuSans-74" x="228.955078"/>
            <use xlink:href="#DejaVuSans-72" x="268.164062"/>
            <use xlink:href="#DejaVuSans-69" x="309.277344"/>
            <use xlink:href="#DejaVuSans-74" x="337.060547"/>
            <use xlink:href="#DejaVuSans-69" x="376.269531"/>
            <use xlink:href="#DejaVuSans-6f" x="404.052734"/>
            <use xlink:href="#DejaVuSans-6e" x="465.234375"/>
            <use xlink:href="#DejaVuSans-20" x="528.613281"/>
            <use xlink:href="#DejaVuSans-6c" x="560.400391"/>
            <use xlink:href="#DejaVuSans-61" x="588.183594"/>
            <use xlink:href="#DejaVuSans-62" x="649.462891"/>
            <use xlink:href="#DejaVuSans-65" x="712.939453"/>
            <use xlink:href="#DejaVuSans-6c" x="774.462891"/>
           </g>
           <!-- • Confidence score -->
           <g style="fill: #111827" transform="translate(170.496 879.965324) scale(0.12 -0.12)">
            <use xlink:href="#DejaVuSans-2022"/>
            <use xlink:href="#DejaVuSans-20" x="58.984375"/>
            <use xlink:href="#DejaVuSans-43" x="90.771484"/>
            <use xlink:href="#DejaVuSans-6f" x="160.595703"/>
            <use xlink:href="#DejaVuSans-6e" x="221.777344"/>
            <use xlink:href="#DejaVuSans-66" x="285.15625"/>
            <use xlink:href="#DejaVuSans-69" x="320.361328"/>
            <use xlink:href="#DejaVuSans-64" x="348.144531"/>
            <use xlink:href="#DejaVuSans-65" x="411.621094"/>
            <use xlink:href="#DejaVuSans-6e" x="473.144531"/>
            <use xlink:href="#DejaVuSans-63" x="536.523438"/>
            <use xlink:href="#DejaVuSans-65" x="591.503906"/>
            <use xlink:href="#DejaVuSans-20" x="653.027344"/>
            <use xlink:href="#DejaVuSans-73" x="684.814453"/>
            <use xlink:href="#DejaVuSans-63" x="736.914062"/>
            <use xlink:href="#DejaVuSans-6f" x="791.894531"/>
            <use xlink:href="#DejaVuSans-72" x="853.076172"/>
            <use xlink:href="#DejaVuSans-65" x="891.939453"/>
           </g>
          </g>
          <g id="patch_9">
           <path d="M 146.141147 167.618046 
Q 249.120437 184.042175 349.891567 200.114126 
" style="fill: none; stroke: #111827; stroke-width: 2; stroke-linecap: round"/>
           <path d="M 346.256489 197.509091 
L 349.891567 200.114126 
L 345.626493 201.459168 
z
" style="fill: #111827; stroke: #111827; stroke-width: 2; stroke-linecap: round"/>
          </g>
          <g id="patch_10">
           <path d="M 352.098853 291.40752 
Q 249.119563 307.831649 148.348433 323.903599 
" style="fill: none; stroke: #111827; stroke-width: 2; stroke-linecap: round"/>
           <path d="M 152.613507 325.248641 
L 148.348433 323.903599 
L 151.983511 321.298565 
z
" style="fill: #111827; stroke: #111827; stroke-width: 2; stroke-linecap: round"/>
          </g>
          <g id="patch_11">
           <path d="M 146.141147 415.196993 
Q 249.120437 431.621122 349.891567 447.693073 
" style="fill: none; stroke: #111827; stroke-width: 2; stroke-linecap: round"/>
           <path d="M 346.256489 445.088038 
L 349.891567 447.693073 
L 345.626493 449.038115 
z
" style="fill: #111827; stroke: #111827; stroke-width: 2; stroke-linecap: round"/>
          </g>
          <g id="patch_12">
           <path d="M 352.098853 538.986467 
Q 249.119563 555.410596 148.348433 571.482547 
" style="fill: none; stroke: #111827; stroke-width: 2; stroke-linecap: round"/>
           <path d="M 152.613507 572.827589 
L 148.348433 571.482547 
L 151.983511 568.877512 
z
" style="fill: #111827; stroke: #111827; stroke-width: 2; stroke-linecap: round"/>
          </g>
          <g id="patch_13">
           <path d="M 146.141147 662.775941 
Q 249.120437 679.20007 349.891567 695.27202 
" style="fill: none; stroke: #111827; stroke-width: 2; stroke-linecap: round"/>
           <path d="M 346.256489 692.666986 
L 349.891567 695.27202 
L 345.626493 696.617062 
z
" style="fill: #111827; stroke: #111827; stroke-width: 2; stroke-linecap: round"/>
          </g>
          <g id="patch_14">
           <path d="M 352.45415 787.95293 
Q 309.602149 802.98872 268.860102 817.284175 
" style="fill: none; stroke: #111827; stroke-width: 2; stroke-linecap: round"/>
           <path d="M 273.296677 817.847024 
L 268.860102 817.284175 
L 271.972327 814.072624 
z
" style="fill: #111827; stroke: #111827; stroke-width: 2; stroke-linecap: round"/>
          </g>
         </g>
        </g>
        <defs>
         <clipPath id="p4527ceac2a">
          <rect x="7.2" y="7.2" width="504" height="1008"/>
         </clipPath>
        </defs>
       </g>
      </g>
     </g>
    </g>
   </g>
  </g>
 </g>
</svg>
